<svg width="18" height="13" viewBox="0 0 18 13" fill="none" xmlns="http://www.w3.org/2000/svg">
<path d="M5.76953 2.375C5.76953 3.35938 4.97656 4.125 4.01953 4.125C3.03516 4.125 2.26953 3.35938 2.26953 2.375C2.26953 1.41797 3.03516 0.625 4.01953 0.625C4.97656 0.625 5.76953 1.41797 5.76953 2.375ZM0.875 6.75C0.875 5.79297 1.64062 5 2.625 5H5.25C5.57812 5 5.87891 5.10938 6.15234 5.27344C5.14062 5.68359 4.34766 6.55859 4.07422 7.625H1.75C1.25781 7.625 0.875 7.24219 0.875 6.75ZM11.3477 5.24609C11.6211 5.10938 11.9219 5 12.25 5H14.875C15.832 5 16.625 5.79297 16.625 6.75C16.625 7.24219 16.2148 7.625 15.75 7.625H13.4805C13.207 6.53125 12.3867 5.65625 11.3477 5.24609ZM10.6914 5.95703C11.5664 6.14844 12.2773 6.80469 12.5781 7.625C12.6602 7.89844 12.7148 8.19922 12.7148 8.5C12.7148 8.99219 12.332 9.375 11.8398 9.375H5.71484C5.22266 9.375 4.83984 8.99219 4.83984 8.5C4.83984 8.19922 4.89453 7.89844 5.00391 7.625C5.27734 6.83203 5.96094 6.20312 6.80859 5.98438C7 5.92969 7.24609 5.875 7.46484 5.875H10.0898C10.3086 5.875 10.5 5.90234 10.6914 5.95703ZM15.3945 2.375C15.3945 3.35938 14.6016 4.125 13.6445 4.125C12.6602 4.125 11.8945 3.35938 11.8945 2.375C11.8945 1.41797 12.6602 0.625 13.6445 0.625C14.6016 0.625 15.3945 1.41797 15.3945 2.375ZM6.58984 2.8125C6.58984 1.60938 7.57422 0.625 8.77734 0.625C9.98047 0.625 10.9648 1.60938 10.9648 2.8125C10.9648 4.04297 9.98047 5 8.77734 5C7.57422 5 6.58984 4.04297 6.58984 2.8125ZM16.625 11.125C17.0898 11.125 17.5 11.5352 17.5 12C17.5 12.4922 17.0898 12.875 16.625 12.875H0.875C0.382812 12.875 0 12.4922 0 12C0 11.5352 0.382812 11.125 0.875 11.125H16.625Z" fill="#69563A"/>
</svg>
